<?xml version="1.0" encoding="UTF-8"?>
<svg id="Layer_1" data-name="Layer 1" xmlns="http://www.w3.org/2000/svg" version="1.1" xmlns:xlink="http://www.w3.org/1999/xlink" viewBox="0 0 62 50">
  <defs>
    <style>
      .cls-1 {
        fill: #116370;
      }

      .cls-1, .cls-2, .cls-3, .cls-4, .cls-5, .cls-6 {
        stroke-width: 0px;
      }

      .cls-2, .cls-7 {
        fill: none;
      }

      .cls-7 {
        stroke: #116370;
        stroke-linecap: round;
        stroke-miterlimit: 10;
        stroke-width: 2px;
      }

      .cls-8 {
        clip-path: url(#clippath);
      }

      .cls-3 {
        fill: #13959a;
      }

      .cls-4 {
        fill: #ededed;
      }

      .cls-5 {
        fill: #97d7db;
      }

      .cls-6 {
        fill: #49bbc0;
      }
    </style>
    <clipPath id="clippath">
      <rect class="cls-2" y="7" width="61.9" height="36.8"/>
    </clipPath>
  </defs>
  <g class="cls-8">
    <g>
      <path class="cls-3" d="M59.8,17l-20.2,17.8v4.6h0l20.2-17.8v-4.6Z"/>
      <path class="cls-6" d="M59.8,17l-6.6-7.5-20.2,17.8,6.6,7.5"/>
      <path class="cls-5" d="M33,27.4l-4.6-.6h0s20.2-17.9,20.2-17.9l4.6.6-20.2,17.8Z"/>
      <path class="cls-4" d="M30.4,41.1l9.3-1.6v-4.6c0,0-6.7-7.5-6.7-7.5l-4.6-.6-2.7,9.1c1.2.3,2.2,1,3.1,2,.8,1,1.4,2.1,1.6,3.3h0Z"/>
      <path class="cls-1" d="M28.9,41.3c.9-.2,1.4-1.1,1-1.9-.3-.6-.6-1.2-1.1-1.7-.5-.5-1-.9-1.5-1.3-.8-.5-1.7,0-2,.8l-.9,2.8c-.3,1,.5,1.9,1.5,1.7l2.9-.5Z"/>
      <path class="cls-1" d="M49.2,9c0,0,.2,0,.2,0l3.1.4c.4,0,.8.3,1.1.6l5.7,6.5c.3.3.4.7.4,1.1v3.2c0,.5-.2,1-.5,1.4l-19.2,17c-.2.2-.5.4-.9.4l-12.6,2.2c-.1,0-.2,0-.3,0-1.2,0-2-1.1-1.7-2.3l3.8-12.7,19.6-17.3c.3-.3.7-.4,1.2-.4M49.2,7c-.9,0-1.8.3-2.5.9l-19.6,17.3-.4.4-.2.5-3.8,12.7c-.3,1.2-.1,2.4.6,3.3.7,1,1.8,1.5,3,1.5s.4,0,.7,0l12.6-2.2c.7-.1,1.3-.4,1.8-.9l19.2-17c.8-.7,1.3-1.8,1.3-2.9v-3.2c0-.9-.4-1.8-1-2.4l-5.7-6.5c-.6-.7-1.4-1.1-2.3-1.2l-3.1-.4c-.2,0-.4,0-.5,0h0Z"/>
      <path class="cls-7" d="M25.7,42.7H4.4"/>
    </g>
  </g>
</svg>