<svg width="628" height="456" viewBox="0 0 628 456" fill="none" preserveAspectRatio="none" xmlns="http://www.w3.org/2000/svg">
<path d="M267.634 1.17353C150.134 2.17353 77.134 31.6735 47.134 58.6735C-3.34003 104.099 -8.70197 186.807 14.416 244.822C17.2327 251.071 25.2928 266.854 35 280C56.7151 314.684 95.7943 337.132 135.5 348.5C148 365.009 146.5 397 108.5 429.5L108.624 429.477C132.584 424.984 157.074 420.393 200 358.221C204.86 358.821 209.756 359.384 214.679 359.921L215.077 359.964C219.653 360.464 224.294 360.971 229 361.5C251.975 364.082 370.634 366.174 475.134 342.174C579.634 318.174 626.5 258.326 626.5 164C626.5 65.2756 576.634 34.1735 530.634 18.6735C484.634 3.17353 385.134 0.173532 267.634 1.17353Z" fill="white" stroke="black" stroke-width="1.5" vector-effect="non-scaling-stroke"/>
</svg>
