<svg width="95" height="59" viewBox="0 0 95 59" fill="none" xmlns="http://www.w3.org/2000/svg">
<path d="M3.29996 57.3C2.59996 57.3 2.09998 56.8 2.09998 56.1V3.5C2.09998 2.8 2.59996 2.3 3.29996 2.3H91.8C92.5 2.3 93 2.8 93 3.5V56C93 56.7 92.5 57.2 91.8 57.2H3.29996V57.3Z" fill="white"/>
<path d="M91.5 3.8V55.8H3.49997V3.8H91.5ZM91.8 0.800003H3.29996C1.79996 0.800003 0.599976 2 0.599976 3.5V56C0.599976 57.5 1.79996 58.7 3.29996 58.7H91.8C93.3 58.7 94.5 57.5 94.5 56V3.5C94.5 2 93.3 0.800003 91.8 0.800003Z" fill="#D4D4D4"/>
<path d="M48.2 45.5C57.3126 45.5 64.7 38.1127 64.7 29C64.7 19.8873 57.3126 12.5 48.2 12.5C39.0873 12.5 31.7 19.8873 31.7 29C31.7 38.1127 39.0873 45.5 48.2 45.5Z" fill="url(#paint0_linear_2_19)"/>
<path d="M50.6 37H47.1V23.4H47L43.1 25.8V22.7L47.3 20H50.6V37Z" fill="white"/>
<defs>
<linearGradient id="paint0_linear_2_19" x1="48.2" y1="12.5" x2="48.2" y2="45.5" gradientUnits="userSpaceOnUse">
<stop stop-color="#C7C7C7"/>
<stop offset="0.8248" stop-color="#A0A0A0"/>
</linearGradient>
</defs>
</svg>
