<svg width="95" height="59" viewBox="0 0 95 59" fill="none" xmlns="http://www.w3.org/2000/svg">
<path d="M3.5 56.8C2.8 56.8 2.29999 56.3 2.29999 55.6V2.99999C2.29999 2.29999 2.8 1.79999 3.5 1.79999H92C92.7 1.79999 93.2 2.29999 93.2 2.99999V55.5C93.2 56.2 92.7 56.7 92 56.7H3.5V56.8Z" fill="white"/>
<path d="M91.7 3.29999V55.3H3.70001V3.29999H91.7ZM92 0.299988H3.5C2 0.299988 0.799988 1.49999 0.799988 2.99999V55.5C0.799988 57 2 58.2 3.5 58.2H92C93.5 58.2 94.7 57 94.7 55.5V2.99999C94.7 1.49999 93.5 0.299988 92 0.299988Z" fill="#D4D4D4"/>
<path d="M48.4 45C57.5127 45 64.9001 37.6127 64.9001 28.5C64.9001 19.3873 57.5127 12 48.4 12C39.2873 12 31.9 19.3873 31.9 28.5C31.9 37.6127 39.2873 45 48.4 45Z" fill="url(#paint0_linear_1_56)"/>
<path d="M42.5 31.8H45.9C46 33.1 47.2 34 48.7 34C50.5 34 51.7 32.8 51.7 31C51.7 29.2 50.5 28 48.7 28C47.4 28 46.5 28.5 46 29.4H42.8L43.7 19.6H54.1V22.5H46.6L46.2 26.8H46.3C46.9 26 48.2 25.4 49.7 25.4C52.8 25.4 55.1 27.7 55.1 31C55.1 34.5 52.5 36.9 48.7 36.9C45.2 36.8 42.6 34.7 42.5 31.8Z" fill="white"/>
<defs>
<linearGradient id="paint0_linear_1_56" x1="48.4001" y1="12" x2="48.4001" y2="45" gradientUnits="userSpaceOnUse">
<stop stop-color="#C7C7C7"/>
<stop offset="0.8248" stop-color="#A0A0A0"/>
</linearGradient>
</defs>
</svg>
