<svg width="95" height="59" viewBox="0 0 95 59" fill="none" xmlns="http://www.w3.org/2000/svg">
<path d="M3.10001 56.8C2.40001 56.8 1.89999 56.3 1.89999 55.6V2.99999C1.89999 2.29999 2.40001 1.79999 3.10001 1.79999H91.6C92.3 1.79999 92.8 2.29999 92.8 2.99999V55.5C92.8 56.2 92.3 56.7 91.6 56.7H3.10001V56.8Z" fill="white"/>
<path d="M91.4 3.29999V55.3H3.39999V3.29999H91.4ZM91.6 0.299988H3.10001C1.60001 0.299988 0.399994 1.49999 0.399994 2.99999V55.5C0.399994 57 1.60001 58.2 3.10001 58.2H91.6C93.1 58.2 94.3 57 94.3 55.5V2.99999C94.4 1.49999 93.2 0.299988 91.6 0.299988Z" fill="#D4D4D4"/>
<path d="M48 45C57.1127 45 64.5 37.6127 64.5 28.5C64.5 19.3873 57.1127 12 48 12C38.8873 12 31.5 19.3873 31.5 28.5C31.5 37.6127 38.8873 45 48 45Z" fill="url(#paint0_linear_1_48)"/>
<path d="M40.8 30.7L48 19.5H52.4V30.6H54.5V33.4H52.4V36.4H49V33.4H40.7L40.8 30.7ZM49.1 30.7V23.5H49L44.4 30.7V30.8L49.1 30.7Z" fill="white"/>
<defs>
<linearGradient id="paint0_linear_1_48" x1="48" y1="12" x2="48" y2="45" gradientUnits="userSpaceOnUse">
<stop stop-color="#C7C7C7"/>
<stop offset="0.8248" stop-color="#A0A0A0"/>
</linearGradient>
</defs>
</svg>
