<svg width="20" height="22" viewBox="0 0 20 22" fill="none" xmlns="http://www.w3.org/2000/svg">
<g clip-path="url(#clip0_30_42)">
<path d="M2.90643 20.6522C5.97348 19.541 10.9242 17.2179 14.2442 13C16.6748 9.91191 18.5761 6.16983 19.3705 3.1614C19.5291 2.56064 19.0587 2 18.4373 2H8.06206C7.36631 2 6.88444 2.69808 7.0733 3.36771C9.11509 10.6073 5.364 15.4123 2.02198 19.2966C1.40208 20.017 2.01283 20.976 2.90643 20.6522Z" fill="#666666"/>
<path d="M8.18613 1C11.6279 7.5 8.18613 14 6.62793 16.5C13.6279 13 16.1279 5.5 17.9722 1H8.18613Z" fill="white"/>
</g>
<defs>
<clipPath id="clip0_30_42">
<rect width="19" height="21" fill="white" transform="matrix(-1 0 0 1 19.814 0.5)"/>
</clipPath>
</defs>
</svg>
