<svg width="628" height="456" viewBox="0 0 628 456" fill="none" preserveAspectRatio="none" xmlns="http://www.w3.org/2000/svg">
  <path d="M360.4,3.2c117.5,1,188.5,30.5,218.5,57.5,50.5,45.4,55.8,126.1,32.7,184.1-2.8,6.2-10.9,22-20.6,35.2-21.7,34.7-58.8,57.1-98.5,68.5-12.5,16.5-11,48.5,27,81h-.1c-24-4.5-48.4-9.1-91.4-71.3-4.9.6-9.8,1.2-14.7,1.7h-.4c-4.6.5-9.2,1.1-13.9,1.6-23,2.6-141.6,4.7-246.1-19.3C48.4,318.2,3.5,258.3,3.5,164S53.4,36.2,99.4,20.7C145.4,5.2,242.9,2.2,360.4,3.2Z" fill="white" stroke="black" stroke-width="1.5" vector-effect="non-scaling-stroke"/>
</svg>