<svg width="95" height="59" viewBox="0 0 95 59" fill="none" xmlns="http://www.w3.org/2000/svg">
<path d="M3.39999 56.8C2.69999 56.8 2.2 56.3 2.2 55.6V2.99999C2.2 2.29999 2.69999 1.79999 3.39999 1.79999H92C92.7 1.79999 93.2 2.29999 93.2 2.99999V55.5C93.2 56.2 92.7 56.7 92 56.7H3.39999V56.8Z" fill="white"/>
<path d="M91.7 3.29999V55.3H3.7V3.29999H91.7ZM92 0.299988H3.5C2 0.299988 0.800003 1.49999 0.800003 2.99999V55.5C0.800003 57 2 58.2 3.5 58.2H92C93.5 58.2 94.7 57 94.7 55.5V2.99999C94.7 1.49999 93.5 0.299988 92 0.299988Z" fill="#D4D4D4"/>
<path d="M48.4 45C57.5127 45 64.9 37.6127 64.9 28.5C64.9 19.3873 57.5127 12 48.4 12C39.2873 12 31.9 19.3873 31.9 28.5C31.9 37.6127 39.2873 45 48.4 45Z" fill="url(#paint0_linear_1_40)"/>
<path d="M42.3 31.8H45.9C46 33 47.2 33.9 48.8 33.9C50.5 33.9 51.7 33 51.7 31.6C51.7 30.2 50.5 29.2 48.5 29.2H47V26.6H48.5C50.2 26.6 51.4 25.7 51.3 24.3C51.3 23 50.3 22.1 48.9 22.1C47.4 22.1 46.1 22.9 46.1 24.3H42.7C42.8 21.4 45.4 19.3 48.9 19.4C52.4 19.4 54.8 21.5 54.8 24.2C54.8 26.1 53.5 27.5 51.6 27.8V27.9C54.1 28.2 55.5 29.7 55.5 31.8C55.5 34.7 52.7 36.8 48.9 36.8C45 36.8 42.4 34.7 42.3 31.8Z" fill="white"/>
<defs>
<linearGradient id="paint0_linear_1_40" x1="48.4001" y1="12" x2="48.4001" y2="45" gradientUnits="userSpaceOnUse">
<stop stop-color="#C7C7C7"/>
<stop offset="0.8248" stop-color="#A0A0A0"/>
</linearGradient>
</defs>
</svg>
