<svg width="20" height="22" viewBox="0 0 20 22" fill="none" xmlns="http://www.w3.org/2000/svg">
<g clip-path="url(#clip0_30_35)">
<path d="M17.7215 20.6522C14.6545 19.541 9.70374 17.2179 6.38376 13C3.95308 9.91191 2.05183 6.16983 1.25744 3.1614C1.0988 2.56064 1.56924 2 2.19059 2H12.5659C13.2616 2 13.7435 2.69808 13.5546 3.36771C11.5128 10.6073 15.2639 15.4123 18.6059 19.2966C19.2258 20.017 18.6151 20.976 17.7215 20.6522Z" fill="#666666"/>
<path d="M12.4418 1C9 7.5 12.4418 14 14 16.5C7 13 4.5 5.5 2.65576 1H12.4418Z" fill="white"/>
</g>
<defs>
<clipPath id="clip0_30_35">
<rect width="19" height="21" fill="white" transform="translate(0.813965 0.5)"/>
</clipPath>
</defs>
</svg>
