<?xml version="1.0" encoding="UTF-8"?>
<svg id="Layer_1" data-name="Layer 1" xmlns="http://www.w3.org/2000/svg" version="1.1" viewBox="0 0 40 40">
  <defs>
    <style>
      .cls-1 {
        fill: #2cafaf;
        stroke-width: 0px;
      }
    </style>
  </defs>
  <path class="cls-1" d="M13.1,34v-1.9h1.4c.5,0,.9,0,1.3-.2.4-.1.7-.4.9-.7.2-.4.3-.9.3-1.7V8h-3.4c-1.2,0-2,.3-2.5.8-.4.6-.7,1.3-.8,2.1l-.2,2.2h-2.4l.2-7.4h23.7l.2,7.4h-2.4l-.3-2.2c-.1-.9-.4-1.6-.8-2.1-.4-.6-1.3-.8-2.5-.8h-3.4v21.4c0,.8.1,1.3.3,1.7s.5.6.9.8c.4.1.8.2,1.3.2h1.4v1.9h-13.2Z"/>
</svg>