<svg width="50" height="50" viewBox="0 0 50 50" fill="none" xmlns="http://www.w3.org/2000/svg">
<g clip-path="url(#clip0_2_213)">
<path d="M44.73 16.54C44.69 16.35 44.64 16.16 44.58 15.97C44.36 16.63 44 17.25 43.47 17.72L32.19 27.92V35.4L43.47 25.2C44.32 24.43 44.8 23.34 44.8 22.19V17.21C44.8 16.98 44.77 16.75 44.73 16.53V16.54Z" fill="#49BBC0"/>
<path d="M5.07001 26.41C5.22001 27.32 5.66001 28.16 6.36001 28.78L16.19 37.52C17.73 38.89 20.07 38.88 21.6 37.5L32.19 27.93L16.99 14.55L6.35001 24.04C5.65001 24.66 5.22001 25.5 5.07001 26.41Z" fill="#EDEDED"/>
<path d="M32.19 27.93L43.47 17.73C44 17.25 44.37 16.64 44.58 15.98C44.64 16.17 44.69 16.36 44.73 16.55C44.58 15.64 44.13 14.81 43.43 14.19L33.01 5.01C31.47 3.66 29.16 3.66 27.63 5.03L16.98 14.54L32.18 27.92L32.19 27.93Z" fill="#49BBC0"/>
<path d="M44.73 16.54C44.69 16.35 44.64 16.16 44.58 15.97C44.36 16.63 44 17.25 43.47 17.72L32.19 27.92V35.4L43.47 25.2C44.32 24.43 44.8 23.34 44.8 22.19V17.21C44.8 16.98 44.77 16.75 44.73 16.53V16.54Z" fill="#13959A"/>
<path d="M21.6 37.5C20.07 38.89 17.74 38.9 16.19 37.52L6.36 28.78C5.66 28.16 5.22 27.32 5.07 26.41C5.03 26.63 5 26.84 5 27.06V33.23C5 33.81 5.12 34.37 5.36 34.89C5.59 35.41 5.93 35.87 6.36 36.26L16.19 45C17.73 46.37 20.07 46.36 21.6 44.98L32.19 35.41V27.93L21.6 37.5Z" fill="#B7B7B7"/>
<path d="M30.34 4C31.3 4 32.25 4.34 33.02 5.01L43.44 14.18C44.31 14.95 44.81 16.06 44.81 17.22V22.2C44.81 23.35 44.33 24.44 43.48 25.21L21.61 44.98C20.84 45.68 19.87 46.03 18.89 46.03C17.91 46.03 16.97 45.69 16.2 45.01L6.37 36.27C5.51 35.5 5.01 34.4 5.01 33.24V27.07C5.01 25.92 5.5 24.82 6.36 24.05L27.64 5.03C28.41 4.34 29.37 4 30.34 4ZM30.34 2C28.85 2 27.42 2.55 26.31 3.54L5.02 22.55C3.74 23.7 3 25.34 3 27.06V33.23C3 34.96 3.74 36.6 5.03 37.75L14.86 46.49C15.97 47.48 17.4 48.02 18.88 48.02C20.36 48.02 21.82 47.47 22.94 46.46L44.81 26.69C46.08 25.54 46.8 23.91 46.8 22.2V17.22C46.8 15.48 46.05 13.83 44.75 12.68L34.34 3.51C33.23 2.54 31.81 2 30.34 2Z" fill="#116370"/>
<path d="M5.36 34.89C5.13 34.37 5 33.81 5 33.23C5 33.81 5.12 34.37 5.36 34.89Z" fill="black"/>
<path d="M5 27.06C5 26.84 5.03 26.62 5.07 26.41C5.03 26.63 5 26.84 5 27.06Z" fill="black"/>
</g>
<defs>
<clipPath id="clip0_2_213">
<rect width="43.8" height="46.03" fill="white" transform="translate(3 2)"/>
</clipPath>
</defs>
</svg>
