<svg width="46" height="46" viewBox="0 0 46 46" fill="none" xmlns="http://www.w3.org/2000/svg">
<path d="M13.168 11.4648C13.1729 13.7939 11.7031 15.0977 9.80859 15.0977C7.9043 15.0977 6.44922 13.7842 6.44922 11.4648C6.44922 9.13086 7.9043 7.83203 9.80859 7.83203C11.7031 7.83203 13.1729 9.13086 13.168 11.4648ZM8.14844 11.4648C8.14844 12.8711 8.77832 13.6328 9.80859 13.6328C10.8438 13.6328 11.4736 12.8711 11.4688 11.4648C11.4736 10.0586 10.8438 9.29199 9.80859 9.29688C8.77832 9.29199 8.14844 10.0586 8.14844 11.4648ZM18.5516 10.4785C18.4588 9.75098 17.9363 9.29199 17.1453 9.29688C16.1053 9.29199 15.4656 10.0879 15.4656 11.4648C15.4656 12.8906 16.1199 13.6328 17.1355 13.6328C17.8973 13.6328 18.4246 13.2227 18.5516 12.5293L20.2312 12.5391C20.0994 13.7988 19.0203 15.0977 17.1062 15.0977C15.1922 15.0977 13.7664 13.7891 13.7664 11.4648C13.7664 9.13086 15.2215 7.83203 17.1062 7.83203C18.8006 7.83203 20.0555 8.79395 20.2312 10.4785H18.5516ZM20.898 15V7.92969H23.7887C25.3805 7.92969 26.3619 8.83301 26.357 10.2734C26.3619 11.25 25.9127 11.9434 25.1314 12.2998L26.6109 15H24.7848L23.4859 12.5684H22.5582V15H20.898ZM22.5582 11.2402H23.4371C24.2232 11.2451 24.6383 10.9375 24.6383 10.2734C24.6383 9.60938 24.2232 9.27734 23.4371 9.27734H22.5582V11.2402Z" fill="#4A92CA"/>
<path d="M29 10C29 8.34315 30.3431 7 32 7H36C37.6569 7 39 8.34315 39 10V25.6H34H29V10Z" fill="#4A92CA"/>
<path d="M8 33.9696V26.9156C8 23.0962 11.0962 20 14.9156 20V20C18.735 20 21.8312 23.0962 21.8312 26.9156V31.7C21.8312 33.95 23.4182 38 29.4118 38H34" stroke="#4A92CA" stroke-width="3" stroke-linecap="round"/>
<path d="M39 27.6L34 34L29 27.6H39Z" fill="#84BDE9"/>
</svg>
