<svg width="628" height="456" viewBox="0 0 628 456" fill="none" preserveAspectRatio="none" xmlns="http://www.w3.org/2000/svg">
<g clip-path="url(#clip0_120_8)">
<path d="M360.366 454.826C477.866 453.826 550.866 424.326 580.866 397.326C631.34 351.901 636.702 269.193 613.584 211.178C610.767 204.929 602.707 189.145 593 176C571.285 141.316 532.206 118.868 492.5 107.5C480 90.9913 481.5 59 519.5 26.5L519.376 26.5233C495.415 31.0157 470.926 35.6074 428 97.7791C423.14 97.1795 418.244 96.6163 413.321 96.079L412.976 96.0413C408.382 95.5395 403.724 95.0307 399 94.5C376.025 91.918 257.366 89.826 152.866 113.826C48.3661 137.826 1.49998 197.674 1.49999 292C1.49999 390.724 51.3661 421.826 97.3661 437.326C143.366 452.826 242.866 455.826 360.366 454.826Z" fill="white" stroke="black" stroke-width="1.5" vector-effect="non-scaling-stroke"/>
</g>
</svg>
