<svg width="690" height="364" viewBox="0 0 690 364" fill="none" preserveAspectRatio="none" xmlns="http://www.w3.org/2000/svg">
  <path d="M109.1,60.7C139.1,33.7,212.1,4.2,329.6,3.2c117.5-1,215,2,261,17.5,46,15.5,95.9,44.6,95.9,143.3s-44.9,152.2-149.4,176.2c-104.5,24-223.2,21.9-246.1,19.3-4.8-.5-9.6-1.1-14.3-1.6-75.1-8.2-143.7-20.4-179.7-77.9-62.5,18.5-91-3.6-91-3.6,37-6.4,60.5-23.4,70.4-31.6-23.1-58-17.8-138.7,32.7-184.1Z" fill="white" stroke="black" stroke-width="1.5" vector-effect="non-scaling-stroke"/>
</svg>