<svg width="628" height="456" viewBox="0 0 628 456" fill="none" preserveAspectRatio="none" xmlns="http://www.w3.org/2000/svg">
<g clip-path="url(#clip0_120_6)">
<path d="M267.531 454.826C149.506 453.825 76.1797 424.291 46.0457 397.259C-4.65375 351.781 -10.0397 268.976 13.1816 210.893C16.0109 204.637 24.107 188.835 33.8575 175.674C55.6697 140.95 94.9235 118.475 134.807 107.095C147.362 90.5666 145.856 58.5379 107.686 26L107.811 26.0233C131.878 30.521 156.477 35.118 199.595 97.3623C204.477 96.7619 209.394 96.1981 214.339 95.6602L214.744 95.6161C219.339 95.1158 223.999 94.6084 228.724 94.0794C251.802 91.4944 370.991 89.3999 475.958 113.428C580.925 137.456 628 197.374 628 291.81C628 390.649 577.911 421.788 531.706 437.306C485.5 452.824 385.556 455.827 267.531 454.826Z" fill="white" stroke="black" stroke-width="1.5" vector-effect="non-scaling-stroke"/>
</g>
</svg>
