<svg width="628" height="456" viewBox="0 0 628 456" fill="none" preserveAspectRatio="none" xmlns="http://www.w3.org/2000/svg">
<path d="M360.366 1.17353C477.866 2.17353 550.866 31.6735 580.866 58.6735C631.34 104.099 636.702 186.807 613.584 244.822C610.767 251.071 602.707 266.854 593 280C571.285 314.684 532.206 337.132 492.5 348.5C480 365.009 481.5 397 519.5 429.5L519.376 429.477C495.416 424.984 470.926 420.393 428 358.221C423.14 358.821 418.244 359.384 413.321 359.921L412.923 359.964C408.347 360.464 403.706 360.971 399 361.5C376.025 364.082 257.366 366.174 152.866 342.174C48.3661 318.174 1.5 258.326 1.5 164C1.5 65.2756 51.3661 34.1735 97.3661 18.6735C143.366 3.17353 242.866 0.173532 360.366 1.17353Z" fill="white" stroke="black" stroke-width="1.5" vector-effect="non-scaling-stroke"/>
</svg>
