<svg width="628" height="456" viewBox="0 0 628 456" fill="none" preserveAspectRatio="none" xmlns="http://www.w3.org/2000/svg">
  <path d="M267.6,3.2c-117.5,1-189.5,30.5-219.5,57.5C-2.3,106.1-7.7,188.8,15.4,246.8c2.8,6.2,10.9,22,20.6,35.2,21.7,34.7,59.8,57.1,99.5,68.5,12.5,16.5,11,48.5-27,81h.1c24-4.5,48.5-9.1,91.4-71.3,4.9.6,9.8,1.2,14.7,1.7h.4c4.6.5,9.2,1.1,13.9,1.6,23,2.6,140.6,4.7,245.1-19.3,104.5-24,151.4-83.8,151.4-178.2s-49.9-129.8-95.9-145.3C483.6,5.2,385.1,2.2,267.6,3.2Z" fill="white" stroke="black" stroke-width="1.5" vector-effect="non-scaling-stroke"/>
</svg>